<svg id="Layer_1" data-name="Layer 1" xmlns="http://www.w3.org/2000/svg" xmlns:xlink="http://www.w3.org/1999/xlink" viewBox="0 0 300 110.69"><defs><style>.cls-1{fill:#2d2d2d;}.cls-2{fill:#7dba42;}.cls-3{fill:#c5d83f;}.cls-4{fill:url(#linear-gradient);}.cls-5{fill:url(#linear-gradient-2);}.cls-6{fill:url(#linear-gradient-3);}.cls-7{fill:#95c941;}</style><linearGradient id="linear-gradient" x1="1.02" y1="794.34" x2="1.01" y2="794.31" gradientTransform="matrix(493.08, 0, 0, -662.3, -479.64, 526151.79)" gradientUnits="userSpaceOnUse"><stop offset="0" stop-color="#a9ce38"/><stop offset="1" stop-color="#30a048"/></linearGradient><linearGradient id="linear-gradient-2" x1="0.7" y1="793.22" x2="0.74" y2="793.22" gradientTransform="matrix(1242.75, 0, 0, -1980.45, -839.17, 1571011.6)" gradientUnits="userSpaceOnUse"><stop offset="0" stop-color="#79a941"/><stop offset="0.13" stop-color="#70a341"/><stop offset="0.34" stop-color="#579441"/><stop offset="0.58" stop-color="#2c7c3d"/><stop offset="0.86" stop-color="#076031"/><stop offset="1" stop-color="#0c5128"/></linearGradient><linearGradient id="linear-gradient-3" x1="0.7" y1="793.59" x2="0.73" y2="793.54" gradientTransform="matrix(1230.57, 0, 0, -1047.12, -831.27, 831014.51)" gradientUnits="userSpaceOnUse"><stop offset="0" stop-color="#79ab41"/><stop offset="0.53" stop-color="#7dba42"/><stop offset="1" stop-color="#0caa4b"/></linearGradient></defs><title>Sencha-300px</title><path class="cls-1" d="M113,76.56A6.9,6.9,0,0,0,115.13,79a9,9,0,0,0,3.1,1.41,14.58,14.58,0,0,0,3.69.46,19.68,19.68,0,0,0,2.76-.21,9.5,9.5,0,0,0,2.76-.83,6.06,6.06,0,0,0,2.15-1.69,4.23,4.23,0,0,0,.86-2.73,3.81,3.81,0,0,0-1.14-2.88,9.19,9.19,0,0,0-3-1.85,28.81,28.81,0,0,0-4.18-1.28c-1.55-.37-3.13-.78-4.73-1.23a40.84,40.84,0,0,1-4.78-1.51,16.37,16.37,0,0,1-4.18-2.3,10.84,10.84,0,0,1-3-3.53,10.67,10.67,0,0,1-1.14-5.12,11.47,11.47,0,0,1,1.44-5.86,13.06,13.06,0,0,1,3.78-4.15,16.4,16.4,0,0,1,5.28-2.45,22.52,22.52,0,0,1,5.89-.8,28,28,0,0,1,6.6.77A16.5,16.5,0,0,1,133,45.74a12.58,12.58,0,0,1,3.9,4.39,13.49,13.49,0,0,1,1.44,6.48H129a7.77,7.77,0,0,0-.82-3.26,5.47,5.47,0,0,0-1.88-2,7.72,7.72,0,0,0-2.67-1,16,16,0,0,0-3.28-.31,11.45,11.45,0,0,0-2.33.24,6.31,6.31,0,0,0-2.12.86,5.24,5.24,0,0,0-1.57,1.54,4.1,4.1,0,0,0-.61,2.33,3.92,3.92,0,0,0,.49,2.09,4.38,4.38,0,0,0,1.94,1.47,24.77,24.77,0,0,0,4,1.35q2.55.68,6.66,1.72c.82.16,2,.46,3.41.89a16.1,16.1,0,0,1,4.33,2.06,13.08,13.08,0,0,1,3.71,3.77,10.71,10.71,0,0,1,1.57,6,13.35,13.35,0,0,1-1.17,5.58,12.11,12.11,0,0,1-3.47,4.45,16.61,16.61,0,0,1-5.71,2.92,27.16,27.16,0,0,1-7.88,1,27.82,27.82,0,0,1-7-.89,17.62,17.62,0,0,1-6-2.79,13.8,13.8,0,0,1-4.14-4.85,14.52,14.52,0,0,1-1.47-7h9.33A8,8,0,0,0,113,76.56Z" transform="translate(-10.72 -10.01)"/><path class="cls-1" d="M152.75,79.75a8.94,8.94,0,0,0,10.19.58,5.53,5.53,0,0,0,2.33-2.79h7.67c-1.23,3.8-3.11,6.53-5.65,8.16a16.56,16.56,0,0,1-9.2,2.46,18.13,18.13,0,0,1-6.76-1.2,14,14,0,0,1-5.09-3.41A15.18,15.18,0,0,1,143,78.27a19.2,19.2,0,0,1-1.14-6.75,18.49,18.49,0,0,1,1.17-6.63,15.31,15.31,0,0,1,8.44-8.84,16.57,16.57,0,0,1,6.6-1.28,15.15,15.15,0,0,1,7.06,1.56,14.11,14.11,0,0,1,4.94,4.21,17.19,17.19,0,0,1,2.79,6,22.3,22.3,0,0,1,.61,7.06H150.6Q150.78,77.84,152.75,79.75Zm9.85-16.7a6.16,6.16,0,0,0-4.76-1.72,7.6,7.6,0,0,0-3.47.71,6.63,6.63,0,0,0-2.21,1.75A6.36,6.36,0,0,0,151,66a9.63,9.63,0,0,0-.4,2.09h14.18A10.15,10.15,0,0,0,162.6,63.05Z" transform="translate(-10.72 -10.01)"/><path class="cls-1" d="M185.49,55.63V60h.18a10,10,0,0,1,4.3-4,12.54,12.54,0,0,1,5.4-1.25,14.73,14.73,0,0,1,5.74.95,8.46,8.46,0,0,1,3.53,2.64,10.17,10.17,0,0,1,1.81,4.11,26.16,26.16,0,0,1,.52,5.37V87.36h-8.72V69.44A11.24,11.24,0,0,0,197,63.57c-.82-1.29-2.28-1.93-4.36-1.93q-3.57,0-5.16,2.12t-1.59,7V87.36H177.2V55.63Z" transform="translate(-10.72 -10.01)"/><path class="cls-1" d="M227,61.33a6.16,6.16,0,0,0-3.5,1,7.63,7.63,0,0,0-2.3,2.46,10.82,10.82,0,0,0-1.26,3.31,18.47,18.47,0,0,0-.36,3.6,17.53,17.53,0,0,0,.36,3.49,11,11,0,0,0,1.2,3.23,6.84,6.84,0,0,0,2.24,2.36,6.2,6.2,0,0,0,3.44.92,6.39,6.39,0,0,0,4.82-1.75,8.24,8.24,0,0,0,2.11-4.69h8.41q-.85,6.32-4.91,9.63a15.85,15.85,0,0,1-10.37,3.32,17.38,17.38,0,0,1-6.54-1.2,14.44,14.44,0,0,1-5.06-3.35A15.13,15.13,0,0,1,212,78.49,17.7,17.7,0,0,1,210.83,72a21.32,21.32,0,0,1,1.07-6.84,15.4,15.4,0,0,1,3.16-5.46,14.48,14.48,0,0,1,5.1-3.6A17.46,17.46,0,0,1,227,54.77a20,20,0,0,1,5.44.73,14.59,14.59,0,0,1,4.66,2.24,12.06,12.06,0,0,1,3.35,3.75A11.87,11.87,0,0,1,242,66.8h-8.53C232.84,63.15,230.7,61.33,227,61.33Z" transform="translate(-10.72 -10.01)"/><path class="cls-1" d="M254.38,43.53V60h.18a10.14,10.14,0,0,1,4.24-4,11.52,11.52,0,0,1,5-1.25,14.7,14.7,0,0,1,5.74.95,8.46,8.46,0,0,1,3.53,2.64,10.17,10.17,0,0,1,1.81,4.11,25.48,25.48,0,0,1,.52,5.37V87.36h-8.71V69.44a11.14,11.14,0,0,0-1.23-5.87q-1.23-1.93-4.36-1.93-3.56,0-5.16,2.12t-1.59,7V87.36h-8.72V43.53Z" transform="translate(-10.72 -10.01)"/><path class="cls-1" d="M280.22,65.38a10.1,10.1,0,0,1,1.53-5.09A10.48,10.48,0,0,1,285.19,57a15,15,0,0,1,4.7-1.75,26.38,26.38,0,0,1,5.24-.52,36.26,36.26,0,0,1,4.85.33,15.08,15.08,0,0,1,4.48,1.32,9,9,0,0,1,3.32,2.73,7.66,7.66,0,0,1,1.29,4.64V80.3a33.91,33.91,0,0,0,.24,4.11,7.57,7.57,0,0,0,.86,3h-8.84a15,15,0,0,1-.4-1.5,13.77,13.77,0,0,1-.21-1.57,11.46,11.46,0,0,1-4.91,3,19.82,19.82,0,0,1-5.77.86,15.52,15.52,0,0,1-4.24-.56,9.61,9.61,0,0,1-3.43-1.71,8,8,0,0,1-2.31-3,10,10,0,0,1-.82-4.24,9.2,9.2,0,0,1,.95-4.45,8,8,0,0,1,2.45-2.79,11,11,0,0,1,3.44-1.56,35.15,35.15,0,0,1,3.9-.83c1.31-.21,2.6-.37,3.86-.49a23.55,23.55,0,0,0,3.38-.56A5.8,5.8,0,0,0,299.55,67a2.35,2.35,0,0,0,.8-2.06,4.61,4.61,0,0,0-.46-2.24,3.47,3.47,0,0,0-1.23-1.29,4.87,4.87,0,0,0-1.78-.61,14.83,14.83,0,0,0-2.18-.15,6.67,6.67,0,0,0-4.05,1.1,5,5,0,0,0-1.72,3.68Zm20.13,6.45a4,4,0,0,1-1.38.77,16.47,16.47,0,0,1-1.78.46c-.64.12-1.3.22-2,.3s-1.4.19-2.09.31a16.2,16.2,0,0,0-1.94.49,5.8,5.8,0,0,0-1.65.83,4,4,0,0,0-1.14,1.32,4.21,4.21,0,0,0-.43,2,4.06,4.06,0,0,0,.43,2,3.38,3.38,0,0,0,1.17,1.26,4.77,4.77,0,0,0,1.72.64,10.33,10.33,0,0,0,2,.19,7.73,7.73,0,0,0,4-.86,5.74,5.74,0,0,0,2.09-2.06,6.71,6.71,0,0,0,.83-2.42,17.16,17.16,0,0,0,.15-2Z" transform="translate(-10.72 -10.01)"/><path class="cls-2" d="M83,76.19h0A37.27,37.27,0,0,0,66.08,51.84h0c-.8-.49-1.61-1-2.45-1.39l-23-11.55h0l-1.24-.63-.22-.1H39a15.86,15.86,0,0,1-5.93-5.28A15.84,15.84,0,0,1,38.81,10l-7.44,3.8A37.27,37.27,0,0,0,10.72,47.18l.56,6.41h0a37.29,37.29,0,0,0,19.4,26.6h.05l0,0h.07l2.31,1.16v0h0l2.75,1.38,19.23,9.64a15.83,15.83,0,0,1,8.94,14.25v.15h0v0h0v0h0v0h0a15.84,15.84,0,0,1-8.43,13.74l4.78-2.44,2.66-1.36A37.28,37.28,0,0,0,83.73,83.53L83,76.19" transform="translate(-10.72 -10.01)"/><path class="cls-3" d="M10.72,47.17A37.26,37.26,0,0,1,31.37,13.81L38.81,10a15.84,15.84,0,0,0-5.74,22.81,65.06,65.06,0,0,0-4.48,19.23A23.52,23.52,0,0,1,18,54.56l-1.1,0a23.94,23.94,0,0,1-5.64-.95Zm53.35,59.55v0Zm0,0v0Zm0,0v0Zm0,0h0Zm0,0h0Zm0,0h0Zm0,0v0Zm0,0h0Zm0,0h0Zm0,0h0Zm0,0Zm0,0Zm0,0h0Zm0,0Z" transform="translate(-10.72 -10.01)"/><path class="cls-4" d="M33.16,81.43l-2.32-1.16h-.07l0,0h-.05a37.29,37.29,0,0,1-19.4-26.61,23,23,0,0,0,5.64,1c.37,0,.73,0,1.1,0A23.4,23.4,0,0,0,28.59,52a65.09,65.09,0,0,0,4.57,29.39" transform="translate(-10.72 -10.01)"/><path class="cls-5" d="M40.57,38.89l-1.24-.63-.22-.1H39a15.86,15.86,0,0,1-5.93-5.28,65.06,65.06,0,0,0-4.48,19.23,23.72,23.72,0,0,0,10.1-9.81l1.88-3.35ZM83,76.19a55.08,55.08,0,0,1-30.46,9.16c-.85,0-1.71,0-2.57-.06A55.63,55.63,0,0,1,35.9,82.81l19.23,9.64a15.83,15.83,0,0,1,8.94,14.25v.15h0v0h0v0h0v0h0a15.84,15.84,0,0,1-8.43,13.74l4.78-2.44,2.66-1.36A37.28,37.28,0,0,0,83.73,83.53L83,76.19Z" transform="translate(-10.72 -10.01)"/><path class="cls-6" d="M52.54,85.35c-.85,0-1.71,0-2.57-.06A55.63,55.63,0,0,1,35.9,82.81l-2.74-1.38a65.07,65.07,0,0,1-4.57-29.38,23.72,23.72,0,0,0,10.1-9.81l1.88-3.35,23,11.55c.84.43,1.66.9,2.46,1.4h0A37.27,37.27,0,0,1,83,76.19a55.08,55.08,0,0,1-30.46,9.16" transform="translate(-10.72 -10.01)"/><path class="cls-7" d="M117.48,113.64l-1.19-3h-6.67l-1.19,3h-1.91l5.41-13.41H114l5.39,13.41ZM113,101.94l-2.84,7.24h5.66Z" transform="translate(-10.72 -10.01)"/><path class="cls-7" d="M127.65,113.64v-6.35c0-1.73-.88-2.26-2.19-2.26a3.75,3.75,0,0,0-2.87,1.51v7.1h-1.51v-9.71h1.51v1.4a4.72,4.72,0,0,1,3.47-1.64c2,0,3.08,1,3.08,3.13v6.82Z" transform="translate(-10.72 -10.01)"/><path class="cls-7" d="M137.44,113.64V100.23h1.67v13.41Z" transform="translate(-10.72 -10.01)"/><path class="cls-7" d="M149.23,113.64v-1.45a4.09,4.09,0,0,1-3.28,1.69c-2.53,0-4.32-1.93-4.32-5.09s1.79-5.1,4.32-5.1a4.06,4.06,0,0,1,3.28,1.71v-5.17h1.55v13.41Zm0-2.65V106.6a3.63,3.63,0,0,0-2.9-1.57c-2,0-3.14,1.61-3.14,3.76s1.17,3.74,3.14,3.74a3.65,3.65,0,0,0,2.9-1.53Z" transform="translate(-10.72 -10.01)"/><path class="cls-7" d="M153.19,108.77a4.85,4.85,0,0,1,4.61-5.08H158c2.94,0,4.67,2.29,4.67,5.2v.39h-7.86a3.39,3.39,0,0,0,3.43,3.35h0a4.28,4.28,0,0,0,3-1.24l.73,1a5.37,5.37,0,0,1-3.87,1.51,4.82,4.82,0,0,1-4.93-4.71C153.18,109.05,153.18,108.91,153.19,108.77Zm4.76-3.84a3.22,3.22,0,0,0-3.17,3.22h6.37a3.14,3.14,0,0,0-3.06-3.22Z" transform="translate(-10.72 -10.01)"/><path class="cls-7" d="M165.07,113.64v-9.71h1.51v1.55a4.16,4.16,0,0,1,3.2-1.77v1.54a5.81,5.81,0,0,0-.59,0,3.56,3.56,0,0,0-2.65,1.55v6.88Z" transform="translate(-10.72 -10.01)"/><path class="cls-7" d="M177.78,113.64v-1.11a4.17,4.17,0,0,1-3.22,1.35,3.24,3.24,0,0,1-3.38-3.08v-.14a3.15,3.15,0,0,1,3.1-3.2h.28a4.12,4.12,0,0,1,3.22,1.3V107c0-1.28-1.05-2-2.46-2a3.8,3.8,0,0,0-3,1.35l-.71-1a5.1,5.1,0,0,1,3.89-1.6c2.07,0,3.76.92,3.76,3.27v6.68Zm0-2v-1.85a3.29,3.29,0,0,0-2.66-1.19,2.14,2.14,0,0,0-.51,4.25,2.17,2.17,0,0,0,.51,0,3.28,3.28,0,0,0,2.66-1.26Z" transform="translate(-10.72 -10.01)"/><path class="cls-7" d="M182.72,116.19l-.76-.62a3,3,0,0,0,1.31-1.87H183a1,1,0,0,1-1-1,1.07,1.07,0,0,1,1.07-1.09h0c.68,0,1.26.56,1.26,1.53A3.86,3.86,0,0,1,182.72,116.19Z" transform="translate(-10.72 -10.01)"/><path class="cls-7" d="M192.21,113.64V100.23h1.67v13.41Z" transform="translate(-10.72 -10.01)"/><path class="cls-7" d="M203.53,113.64v-6.35c0-1.73-.88-2.26-2.19-2.26a3.79,3.79,0,0,0-2.87,1.51v7.1H197v-9.71h1.51v1.4a4.76,4.76,0,0,1,3.48-1.64c2,0,3.07,1,3.07,3.13v6.82Z" transform="translate(-10.72 -10.01)"/><path class="cls-7" d="M207.49,108.77A4.8,4.8,0,0,1,212,103.7h.34a4.11,4.11,0,0,1,3.56,1.69l-1,.9a2.87,2.87,0,0,0-2.48-1.28,3.43,3.43,0,0,0-3.36,3.74c0,2.15,1.31,3.76,3.36,3.76a3,3,0,0,0,2.48-1.26l1,.92a4.13,4.13,0,0,1-3.56,1.69,4.82,4.82,0,0,1-4.86-4.79C207.48,109,207.49,108.87,207.49,108.77Z" transform="translate(-10.72 -10.01)"/><path class="cls-7" d="M217.78,112.74a1.11,1.11,0,1,1,1.12,1.1h0A1.12,1.12,0,0,1,217.78,112.74Z" transform="translate(-10.72 -10.01)"/><path class="cls-7" d="M227.4,106.94a6.73,6.73,0,0,1,6.5-6.94,2.67,2.67,0,0,1,.4,0,6,6,0,0,1,5.09,2.66l-1.39.78a4.51,4.51,0,0,0-3.7-2,5.46,5.46,0,0,0,0,10.9,4.56,4.56,0,0,0,3.7-2l1.4.77a6,6,0,0,1-5.1,2.67,6.72,6.72,0,0,1-6.9-6.52Z" transform="translate(-10.72 -10.01)"/><path class="cls-7" d="M240.91,108.77a4.81,4.81,0,1,1,4.81,5.11,4.76,4.76,0,0,1-4.82-4.7C240.9,109,240.9,108.91,240.91,108.77Zm8,0c0-2-1.15-3.74-3.22-3.74s-3.22,1.77-3.22,3.74,1.15,3.76,3.22,3.76,3.25-1.77,3.25-3.76Z" transform="translate(-10.72 -10.01)"/><path class="cls-7" d="M264.7,113.64V107c0-1.22-.52-2-1.79-2a3.33,3.33,0,0,0-2.57,1.49v7.12h-1.51V107c0-1.22-.51-2-1.79-2a3.39,3.39,0,0,0-2.56,1.51v7.1H253v-9.68h1.5v1.4a4.28,4.28,0,0,1,3.16-1.64,2.48,2.48,0,0,1,2.6,1.81,4,4,0,0,1,3.25-1.81c1.77,0,2.72,1,2.72,2.93v7Z" transform="translate(-10.72 -10.01)"/><path class="cls-7" d="M270.78,112.17v5.17h-1.51V103.93h1.51v1.45a4,4,0,0,1,3.28-1.69c2.55,0,4.32,1.93,4.32,5.08s-1.77,5.11-4.32,5.11A4,4,0,0,1,270.78,112.17Zm6-3.4c0-2.15-1.16-3.74-3.11-3.74a3.58,3.58,0,0,0-2.9,1.55V111a3.65,3.65,0,0,0,2.9,1.56C275.58,112.53,276.78,110.93,276.78,108.77Z" transform="translate(-10.72 -10.01)"/><path class="cls-7" d="M286.78,113.64v-1.11a4.17,4.17,0,0,1-3.22,1.35,3.23,3.23,0,0,1-3.37-3.08.66.66,0,0,1,0-.14,3.16,3.16,0,0,1,3.1-3.2h.28a4.12,4.12,0,0,1,3.22,1.3V107c0-1.28-1-2-2.46-2a3.82,3.82,0,0,0-3,1.35l-.71-1a5.09,5.09,0,0,1,3.88-1.6c2.07,0,3.76.92,3.76,3.27v6.68Zm0-2v-1.85a3.27,3.27,0,0,0-2.66-1.19,2.14,2.14,0,1,0-.5,4.25,2.09,2.09,0,0,0,.5,0,3.26,3.26,0,0,0,2.66-1.26Z" transform="translate(-10.72 -10.01)"/><path class="cls-7" d="M297.91,113.64v-6.35c0-1.73-.88-2.26-2.19-2.26a3.81,3.81,0,0,0-2.87,1.51v7.1h-1.51v-9.71h1.51v1.4a4.76,4.76,0,0,1,3.48-1.64c2,0,3.07,1,3.07,3.13v6.82Z" transform="translate(-10.72 -10.01)"/><path class="cls-7" d="M302.14,116.07a2.55,2.55,0,0,0,.82.17,1.42,1.42,0,0,0,1.45-1l.64-1.47L301,104h1.65l3.22,8,3.23-8h1.63l-4.86,11.68a2.88,2.88,0,0,1-2.86,2,5.09,5.09,0,0,1-1.09-.14Z" transform="translate(-10.72 -10.01)"/></svg>